<svg width="19" height="20" viewBox="0 0 19 20" fill="none" xmlns="http://www.w3.org/2000/svg">
<path d="M6.33509 18C6.33509 19.1 5.38483 20 4.2234 20C3.06196 20 2.12226 19.1 2.12226 18C2.12226 16.9 3.06196 16 4.2234 16C5.38483 16 6.33509 16.9 6.33509 18ZM14.7819 16C13.6205 16 12.6807 16.9 12.6807 18C12.6807 19.1 13.6205 20 14.7819 20C15.9433 20 16.8936 19.1 16.8936 18C16.8936 16.9 15.9433 16 14.7819 16ZM15.1989 11C15.6794 11 16.1439 10.845 16.5188 10.56C16.8936 10.275 17.1523 9.88 17.2578 9.435L19 3H4.2234V2C4.2234 1.47 4.00167 0.96 3.60572 0.585C3.20978 0.21 2.6713 0 2.1117 0H0V2H2.1117V13C2.1117 13.53 2.33343 14.04 2.72937 14.415C3.12531 14.79 3.6638 15 4.2234 15H16.8936C16.8936 14.47 16.6719 13.96 16.2759 13.585C15.88 13.21 15.3415 13 14.7819 13H4.2234V11H15.1989Z" fill="#0A0A0F"/>
</svg>
