<svg width="20" height="20" viewBox="0 0 20 20" fill="none" xmlns="http://www.w3.org/2000/svg">
<path d="M19.0001 19.9998C18.7451 19.9998 18.4901 19.8998 18.2951 19.7048L10.0001 11.4098L1.70506 19.7048C1.31506 20.0948 0.680059 20.0948 0.290059 19.7048C-0.0999414 19.3148 -0.0999414 18.6798 0.290059 18.2898L8.58506 9.99479L0.295059 1.70479C-0.0999414 1.31479 -0.0999414 0.684785 0.295059 0.294785C0.685059 -0.100215 1.31506 -0.100215 1.70506 0.294785L10.0001 8.58979L18.2951 0.294785C18.6851 -0.0952148 19.3201 -0.0952148 19.7101 0.294785C20.1001 0.684785 20.1001 1.31979 19.7101 1.70979L11.4151 10.0048L19.7101 18.2998C20.1001 18.6898 20.1001 19.3248 19.7101 19.7148C19.5151 19.9098 19.2601 20.0098 19.0051 20.0098L19.0001 19.9998Z" fill="#373737"/>
</svg>
