<svg width="20" height="20" viewBox="0 0 20 20" fill="none" xmlns="http://www.w3.org/2000/svg">
<path d="M10 0.999878C13.5951 0.999878 15.3928 0.999683 16.6875 1.85632C17.2657 2.23888 17.761 2.73421 18.1436 3.31238C19.0002 4.60711 19 6.40481 19 9.99988C19 13.5949 19.0002 15.3926 18.1436 16.6874C17.761 17.2655 17.2657 17.7609 16.6875 18.1434C15.3928 19.0001 13.5951 18.9999 10 18.9999C6.40493 18.9999 4.60723 19.0001 3.3125 18.1434C2.73434 17.7609 2.239 17.2655 1.85645 16.6874C0.999805 15.3926 1 13.5949 1 9.99988C1 6.40481 0.999804 4.60711 1.85645 3.31238C2.239 2.73421 2.73434 2.23888 3.3125 1.85632C4.60723 0.999682 6.40493 0.999878 10 0.999878ZM10 5.3407C7.42687 5.34081 5.34098 7.42676 5.34082 9.99988C5.34082 12.5731 7.42677 14.6599 10 14.66C12.5733 14.66 14.6592 12.5732 14.6592 9.99988C14.659 7.42669 12.5732 5.3407 10 5.3407ZM10 6.91687C11.7026 6.91687 13.0829 8.29731 13.083 9.99988C13.083 11.7026 11.7027 13.0829 10 13.0829C8.2974 13.0828 6.91699 11.7025 6.91699 9.99988C6.91715 8.29738 8.29749 6.91698 10 6.91687ZM14.8438 4.0116C14.2392 4.0116 13.7492 4.50183 13.749 5.10632C13.749 5.71098 14.2391 6.20105 14.8438 6.20105C15.4484 6.20099 15.9385 5.71094 15.9385 5.10632C15.9383 4.50186 15.4482 4.01166 14.8438 4.0116Z" fill="#0A0A0F"/>
</svg>
