<svg width="29" height="30" viewBox="0 0 29 30" fill="none" xmlns="http://www.w3.org/2000/svg">
<g clip-path="url(#clip0_2_155)">
<path d="M20.85 8.15007C20.2426 8.15007 19.8099 7.63002 19.8099 7.10996C19.8099 6.5026 20.33 6.06985 20.85 6.06985H21.0237C20.0699 5.46249 18.8561 5.80982 18.3361 6.67722C17.7287 7.63097 18.0761 8.84475 18.9435 9.3648C19.8108 9.88486 21.111 9.62483 21.631 8.75744C21.8911 8.32374 21.9774 7.71733 21.8911 7.19632C21.8911 7.71638 21.371 8.15007 20.851 8.15007H20.85Z" fill="#0A0A0F"/>
<path d="M9.92499 10.3177C9.92499 10.7514 9.4913 11.0114 9.0576 11.0114C8.6239 11.0114 8.36388 10.5777 8.36388 10.144C8.36388 9.71029 8.79757 9.45027 9.23127 9.45027C8.53754 9.01657 7.58379 9.19024 7.1501 9.88396C6.7164 10.5777 6.89007 11.5314 7.58379 11.9651C8.27752 12.3988 9.23127 12.2252 9.66496 11.5314C9.83863 11.2714 9.92499 11.0114 9.92499 10.7514C9.92499 10.5777 9.92499 10.4913 9.92499 10.3177Z" fill="#0A0A0F"/>
<path d="M28.5663 18.4676C28.5663 18.554 28.74 18.4676 28.8263 18.6413C28.9127 18.815 28.9127 19.1614 29 18.815C29 18.6413 28.9649 18.5938 28.9649 18.4211L28.8709 18.3376C28.7741 18.2522 28.74 18.2949 28.4799 18.1222C28.4799 18.1222 28.3063 17.9485 28.2199 17.9485C28.1335 17.9485 28.0462 17.9485 27.9599 17.7749C27.8735 17.6012 27.7862 17.6012 27.8735 17.6012H28.3072C28.3936 17.6012 28.4809 17.6012 28.3072 17.4275C28.1335 17.2539 28.2208 17.4275 27.9608 17.2539C27.8745 17.1675 27.7871 17.0802 27.6144 16.9938C27.4408 16.9938 27.5281 16.9075 27.4408 16.6474C27.2671 15.8674 27.0944 15 26.747 14.2199C26.6607 13.9598 26.487 13.7862 26.4006 13.5262C26.4006 13.4398 26.3143 13.3525 26.227 13.1798C26.227 13.0934 25.967 12.8334 26.227 13.0934C26.487 13.3534 26.747 13.3534 26.5734 13.0934C26.3997 12.8334 25.966 12.747 25.966 12.747C25.966 12.747 25.8796 12.747 26.3997 12.747C26.9198 12.747 27.4398 13.007 27.0934 12.747C26.747 12.487 26.5734 12.5734 26.226 12.4006C25.6187 11.8806 25.0986 11.1869 24.6649 10.4068C24.6649 10.2331 24.4912 9.97307 24.4049 9.79941C24.4049 9.79941 24.3185 9.62574 24.2312 9.62574H24.6649C24.8386 9.62574 25.2723 9.62574 24.8386 9.62574H24.0585C24.2322 9.36571 24.3185 9.10568 24.3185 8.84565V7.97826C24.3185 7.97826 24.2322 8.15193 24.1449 8.23829C24.1449 7.97826 24.3185 7.71823 24.3185 7.4582H23.7985L24.0585 6.15807C24.2322 5.72437 24.0585 5.29067 23.8848 5.03065C23.3648 4.42328 22.9311 3.99053 22.6711 3.73051H22.3247C22.151 3.55684 21.891 3.38412 21.6309 3.38412C21.3709 3.38412 21.1109 3.38412 20.8509 3.29776C20.8509 3.38412 20.6772 3.47143 20.5908 3.47143H20.5045C20.2444 3.55779 20.0708 3.6451 19.8971 3.73146C19.2034 1.91031 18.1633 0.262835 17.2959 0.00280762C17.9032 1.47662 18.7697 2.86406 18.2496 3.73146L17.7296 4.59885V4.68521H17.5559C17.5559 4.68521 17.5559 4.77157 17.4695 4.85888C17.3832 4.94618 17.2959 4.94523 17.2959 4.94523L17.2095 5.03159C17.2095 5.03159 17.2095 5.20526 17.1232 5.20526H17.0368C16.9504 5.20526 16.8631 5.20526 16.8631 5.37893C16.7768 5.37893 16.6895 5.37893 16.6031 5.46529C16.6031 5.55165 16.5167 5.63896 16.4294 5.63896C15.8221 5.46529 15.3893 5.37893 14.9556 5.29257C13.5682 5.72627 12.268 6.33268 11.1406 7.11372H11.0543C10.9679 6.94005 10.7942 6.94005 10.5342 6.85369H9.84048C9.84048 6.85369 9.84048 6.94005 9.75412 6.94005V6.76638L9.32042 5.89899C8.88673 5.03159 9.66681 3.73146 10.2742 2.17034C8.6267 2.7777 6.02547 7.97921 5.93911 8.76024V9.02027V9.19394C5.93911 9.19394 5.85275 9.19394 5.76544 9.2803V9.45397C5.76544 9.54033 5.59178 9.62763 5.59178 9.62763C5.59178 9.71399 5.50542 9.8013 5.41811 9.88766C5.41811 9.97402 5.41811 10.1477 5.24444 10.234V10.4077C5.07077 11.1878 4.98441 11.6215 4.98441 11.7079C4.98441 11.9679 5.07077 12.3152 5.24444 12.4879H4.46436C4.03066 12.4879 4.46436 12.4879 4.63802 12.4879H5.07172C5.07172 12.4879 4.98536 12.5743 4.89805 12.6616C4.81169 12.8353 4.72438 13.0953 4.63802 13.269C4.29164 14.0491 3.77063 14.6564 3.07691 15.2628C2.73052 15.4365 2.55685 15.3492 2.20952 15.6092C1.86218 15.8693 2.38318 15.6092 2.90324 15.6092C3.42329 15.6092 3.24963 15.6092 3.33694 15.6092C3.42424 15.6092 2.99055 15.7829 2.72957 15.9556C2.46859 16.1283 2.72957 16.1293 3.07596 15.9556C3.42235 15.7819 3.16232 15.9556 3.07596 16.042C3.07596 16.1283 3.07596 16.302 2.90229 16.3884C2.90229 16.6484 2.72862 16.9084 2.5559 17.0821C2.29587 17.8622 2.03585 18.6432 1.86218 19.5096C1.86218 19.683 1.80429 19.7985 1.68851 19.856C1.60215 19.856 1.42848 20.0297 1.34212 20.1161C1.16845 20.2897 1.25576 20.1161 0.995735 20.2897C0.735708 20.4634 0.995735 20.4634 0.995735 20.4634H1.25576C1.51579 20.4634 1.34212 20.4634 1.42943 20.4634C1.51674 20.4634 1.42943 20.4634 1.34307 20.6371C1.25671 20.8107 1.1694 20.6371 1.08304 20.8107C0.996684 20.8107 0.909376 20.8971 0.823016 20.9844C0.649348 21.1581 0.562988 21.3308 0.562988 21.5918V22.1118C0.562988 22.4582 0.562988 22.1118 0.736657 21.9382C0.910325 21.7645 0.910325 21.9381 0.996684 21.7645C1.08304 21.5908 0.996684 21.6781 0.996684 21.5045C0.996684 21.3308 1.08304 21.5045 0.996684 21.5045C0.910325 21.5045 0.996684 21.5908 0.996684 21.9382V23.3256C0.996684 23.5856 0.996684 23.3256 1.17035 23.0656C1.34402 22.8055 1.25671 22.8919 1.43038 22.7192C1.51674 22.6328 1.60405 22.4592 1.69041 22.3728C1.77677 22.1991 1.86408 22.0264 2.0368 21.8527C2.21046 21.5927 2.0368 21.8527 2.21046 21.8527C2.38413 21.8527 2.38413 21.9391 2.38413 22.0264V23.0665C2.38413 23.2402 2.38413 23.3265 2.38413 23.2402C2.38413 23.1538 2.5578 23.1538 2.64416 23.0665C2.73052 23.0665 2.81783 22.8929 2.99055 22.8065C3.07691 22.7201 3.16422 22.5465 3.16422 22.4601C3.16422 22.2001 3.16422 21.94 3.07786 21.68C3.07786 21.68 3.07786 21.5937 3.42424 20.9863C4.03161 19.6862 5.07172 18.5587 6.37186 17.865C6.2855 19.0788 6.19819 20.2062 6.2855 21.42C6.80556 22.0274 7.41292 22.6338 8.01933 23.1538C8.53939 23.5875 9.05945 24.0212 9.49314 24.3676H10.1005V24.714C9.92684 25.5814 9.66681 25.8414 9.92684 25.4941L10.1869 25.1477V26.1878C10.3605 26.7952 10.5333 27.4016 10.7942 28.0089C10.9679 28.269 10.7942 28.4426 10.4478 28.1826C10.1015 27.9226 9.92779 27.9226 9.0604 27.8362C8.193 27.7499 7.23925 29.4837 7.23925 29.4837H12.008C11.8343 28.79 11.748 28.0099 11.748 27.3162L11.9217 26.4488C11.9217 26.4488 12.0953 26.1888 12.1817 26.4488C12.3553 26.7952 12.5281 27.0561 12.789 27.3162L12.6154 26.1887C12.4417 25.0613 12.8754 25.4087 12.8754 25.5814C12.8754 25.7541 13.1354 26.0151 13.1354 25.3214C13.1354 25.0613 13.1354 24.8013 13.3091 24.6276H15.563H15.3893V24.8013C15.563 25.0613 15.7357 25.0613 15.823 25.8414C15.9094 26.6215 16.083 26.2751 16.083 26.1014C16.083 25.9278 16.5167 25.5814 16.3431 26.7088L16.1694 27.8362C16.4294 27.5762 16.6031 27.3162 16.7768 26.9688C16.7768 26.7088 17.0368 26.9688 17.0368 26.9688C17.0368 26.9688 17.2105 27.7489 17.2105 27.8362C17.2105 28.53 17.2105 29.31 16.9504 30.0038H21.7192C21.7192 30.0038 20.7654 28.3563 19.8981 28.3563C19.0307 28.3563 18.7706 28.4426 18.5106 28.7027C18.2506 28.9627 17.9905 28.7027 18.1642 28.529C18.4242 27.9216 18.5979 27.3152 18.7716 26.7079V25.6677L19.0316 26.0141C19.2916 26.3605 19.0316 26.0141 18.8579 25.234C18.8579 24.974 18.8579 24.8004 18.7716 24.6267C19.9854 24.1066 21.2864 23.6729 22.5002 23.1529C22.7603 23.0665 23.0203 22.8929 23.2803 22.8065L24.4077 22.0264L23.714 17.604V17.344V16.9976C23.714 16.4776 23.5403 16.0439 23.5403 15.5238V14.7437C24.6678 15.4375 25.6215 16.4776 26.1416 17.6913C26.4016 18.2114 26.488 18.3851 26.488 18.3851C26.488 18.6451 26.4016 18.9051 26.4016 19.1652C26.4016 19.3388 26.488 19.4252 26.5753 19.5115C26.6626 19.5979 26.7489 19.6852 26.9217 19.7716C27.008 19.8579 27.1817 19.8579 27.1817 19.9452C27.1817 20.0325 27.1817 19.9452 27.1817 19.7716V18.7315C27.1817 18.7315 27.268 18.5578 27.3554 18.5578C27.4427 18.5578 27.3554 18.3841 27.529 18.5578C27.6154 18.7315 27.789 18.9042 27.8754 19.0778C27.9618 19.2515 28.0491 19.3379 28.1354 19.4242C28.2218 19.5106 28.2218 19.4242 28.3955 19.7706C28.5691 20.117 28.5691 20.378 28.5691 20.0306V18.6432M23.7112 5.63611C23.7975 5.72247 23.8848 5.89614 23.8848 5.9825V6.58986C23.8848 6.58986 23.7985 6.58986 23.7985 6.4162C23.6248 6.06981 23.5384 5.72247 23.5384 5.28878C23.6248 5.37513 23.7121 5.5488 23.7985 5.63516H23.7121L23.7112 5.63611ZM7.84472 12.9188C7.67105 12.9188 7.41102 12.9188 7.23735 12.8324C7.06369 12.8324 6.89097 12.7461 6.62999 12.6588C6.36996 12.3987 6.2836 12.1387 6.19629 11.7914V11.184C6.45632 10.3166 7.06368 9.62289 7.84377 9.01647C8.19016 8.75645 8.53749 8.58278 8.79752 8.49642C9.23122 8.32275 9.5776 8.23639 10.0113 8.15003H10.8787L10.9651 8.23639C10.9651 8.49642 10.9651 8.75645 11.1387 8.93011C11.1387 9.19014 11.2251 9.36381 11.3124 9.62384V10.0575C11.1387 10.9249 10.5323 11.7914 9.75127 12.2251C9.49124 12.3987 9.14391 12.4851 8.88388 12.6588C8.62385 12.7451 8.27652 12.8324 8.01649 12.9188H7.84282H7.84472ZM10.0122 21.1562C10.0122 21.3298 10.0122 21.4162 9.92589 21.5026H9.66586C9.49219 21.2425 9.31948 20.8952 9.23217 20.6352C9.23217 20.4615 9.23217 20.2888 9.31853 20.1151C9.31853 20.1151 9.31853 19.7687 9.40489 19.9414C9.57855 20.2015 9.75127 20.5488 9.92494 20.8088C9.92494 20.9825 10.0986 20.8952 10.0113 21.1552L10.0122 21.1562ZM10.445 20.5488C10.185 20.2024 10.185 20.3751 10.0986 20.0287C10.0122 19.6824 10.0986 19.6824 10.0986 19.5087C10.0986 19.335 10.0986 19.335 10.185 19.335C10.2713 19.335 10.185 19.075 10.445 19.335C10.5314 19.5087 10.6187 19.6814 10.7914 19.7687C10.7914 19.7687 10.9651 19.9424 11.0514 20.0287C11.1378 20.2024 11.2251 20.0287 11.2251 20.3751C11.2251 20.7215 11.3114 20.6352 11.2251 20.8088C11.1387 20.9825 11.2251 20.9825 11.0514 21.0689H10.705C10.705 20.8088 10.705 20.5488 10.445 20.3751V20.5488ZM11.6597 24.3638C11.6597 24.3638 11.4861 24.4502 11.3997 24.4502C11.1397 24.1901 10.8796 23.8428 10.706 23.4964C10.706 23.4101 10.8796 23.4101 10.706 23.0627C10.5323 22.7154 10.6196 22.7163 10.706 22.629C10.706 22.5427 10.7923 22.4554 10.966 22.4554C10.966 22.4554 11.1397 22.2817 11.226 22.4554C11.3124 22.629 11.3997 22.8017 11.3997 23.0627C11.3997 23.3237 11.3997 23.0627 11.4861 23.4091C11.4861 23.5828 11.5724 23.7555 11.5724 23.9292C11.5724 24.1892 11.6588 24.1892 11.5724 24.2756L11.6588 24.3619L11.6597 24.3638ZM11.3124 19.5951V18.7277C11.3124 18.3813 11.3124 18.294 11.4861 18.2076C11.6597 18.1212 11.5724 17.7739 11.8324 18.2076C12.0061 18.4676 12.0925 18.7277 12.1788 18.9877C12.3525 19.2477 12.2652 19.5077 12.3525 19.7678C12.4398 20.0278 12.5262 20.1142 12.6125 20.3751C12.6989 20.6361 12.8726 20.7215 12.6125 20.7215C12.4389 20.7215 12.2661 20.7215 12.1788 20.6352C12.0052 20.6352 12.1788 20.8952 11.9188 20.4615C11.6588 20.0278 11.3114 19.5077 11.3114 19.5077V19.5941L11.3124 19.5951ZM12.7862 23.0637V23.671C12.7862 23.8447 12.7862 24.0174 12.6125 24.1911C12.6125 24.3648 12.5262 24.1911 12.5262 24.1911C12.3525 24.0174 12.2661 23.8447 12.0925 23.5837C12.0061 23.4101 12.0061 23.5837 11.9188 23.2373C11.8315 22.891 11.8324 22.9773 11.9188 22.7173C12.0052 22.4573 11.9188 22.4573 12.0925 22.2836C12.2661 22.1099 12.2661 22.0236 12.3525 22.0236C12.4389 22.0236 12.5262 22.0236 12.6125 22.1972C12.6989 22.3709 12.7862 22.1972 12.7862 22.4573V23.0646V23.0637ZM13.0462 20.2024C12.8726 19.9424 12.6998 19.856 12.6998 19.6824V19.336C12.6998 19.336 12.6135 18.4686 12.6135 18.2959V17.6021C12.6135 17.4285 12.4398 17.3421 12.6998 17.3421C12.9599 17.3421 12.9599 17.2558 13.1335 17.3421C13.3072 17.4285 13.3936 17.5158 13.4799 17.6885C13.5663 17.8612 13.6536 17.8622 13.7399 18.1222C13.8263 18.3822 13.7399 19.0759 13.7399 19.2496C13.7399 19.4233 13.6536 19.9433 13.6536 20.117V20.4634C13.4799 20.4634 13.3936 20.4634 13.3072 20.377C13.1335 20.2034 13.2208 20.2907 12.9608 19.9433L13.0472 20.2034L13.0462 20.2024ZM14.3473 23.8438C14.3473 23.9595 14.2894 24.0462 14.1736 24.1038H13.9136C13.7399 24.0174 13.5672 23.8438 13.4799 23.5837C13.3936 23.4101 13.3063 23.15 13.3063 22.89V21.7626C13.3063 21.6762 13.3063 21.5889 13.3926 21.5026C13.479 21.4162 13.3926 21.2425 13.6526 21.4162C13.9127 21.5899 13.739 21.4162 13.9127 21.6762C14.0863 21.9363 14.0863 21.6762 14.1727 22.1099C14.2591 22.5436 14.1727 22.63 14.3464 22.9773C14.52 23.3246 14.52 23.4974 14.3464 23.671V23.8447L14.3473 23.8438ZM14.6073 20.2024C14.521 19.7687 14.4337 19.6824 14.6073 19.5087C14.6937 19.2487 14.781 19.075 14.781 18.815V18.2949C14.781 18.1791 14.8389 18.0637 14.9547 17.9485C15.041 17.8622 15.2147 17.7749 15.3011 17.6021L15.6475 17.2558C15.6475 17.2558 15.7338 17.4294 15.8211 17.7758V19.6833C15.8211 19.7697 15.7348 19.857 15.6475 20.0297C15.4738 20.3761 15.3874 20.4634 15.3011 20.4634H14.9547C14.9547 20.4634 14.9547 20.6371 14.781 20.2034H14.6073V20.2024ZM15.9075 23.0637C15.9075 23.2373 15.9075 23.4974 15.7338 23.671C15.5601 24.0174 15.7338 23.9311 15.5601 24.1047C15.3865 24.2784 15.2138 24.4511 15.1264 24.1047C15.1264 23.8447 15.1264 23.5847 15.0401 23.3246V22.891C15.0401 22.66 15.0689 22.4867 15.1264 22.3709C15.2128 22.1972 15.3001 22.1972 15.3865 22.0245C15.4728 21.8518 15.3865 21.8508 15.5601 21.7645C15.7338 21.6781 15.7338 21.5908 15.9065 21.7645C16.0792 21.9381 16.1666 21.9382 16.0802 22.1982C16.0802 22.5446 16.0802 22.8055 15.9065 23.1519V23.0656L15.9075 23.0637ZM16.0811 20.6361C15.9948 20.3761 15.9075 20.1161 15.9075 19.7687C15.9075 19.7687 15.9075 19.6824 16.0811 19.335C16.2548 18.9877 16.0811 18.9013 16.2548 18.815C16.4285 18.7286 16.5148 18.6413 16.6885 18.4686C16.8622 18.2959 16.6885 18.3822 16.9485 18.2086C17.2086 18.0349 17.2086 18.0349 17.2086 18.0349C17.2086 18.0349 17.2086 17.9485 17.2949 18.0349V19.075C17.2949 19.2487 17.2949 19.4214 17.1213 19.5951C17.1213 19.7687 16.9476 19.8551 16.8612 19.9414C16.6876 20.1151 16.7749 20.1151 16.6012 20.2015C16.4275 20.2878 16.6012 20.3751 16.4275 20.4615H16.0811V20.6352V20.6361ZM17.1213 23.6701C17.0055 23.901 16.9188 24.0456 16.8612 24.1038H16.6012V22.3699C16.6012 22.1099 16.7749 22.1099 16.8612 22.0236C16.9476 21.9372 17.0349 21.9372 17.1213 22.0236C17.2076 22.1099 17.2949 22.0236 17.3813 22.1972C17.4676 22.3709 17.555 22.1972 17.4676 22.4573C17.4676 22.7173 17.4676 22.9773 17.294 23.151C17.2076 23.3246 17.1203 23.4974 17.034 23.671H17.1203L17.1213 23.6701ZM17.3822 20.2024C17.3822 20.0287 17.4686 19.856 17.5559 19.6824C17.6432 19.5087 17.7296 19.4223 17.8159 19.2487C17.8159 19.1623 17.9896 18.9886 18.076 18.9023C18.2496 18.7286 18.1623 18.6423 18.336 18.6423C18.5097 18.6423 18.6824 18.4686 18.6824 18.6423C18.6824 18.8159 18.9424 18.8159 18.856 19.2496C18.856 19.4233 18.6824 19.6833 18.596 19.857C18.4223 20.117 18.596 20.2034 18.336 20.377C18.2496 20.4634 18.076 20.5507 17.9023 20.6371C17.7286 20.7234 17.8159 20.8107 17.6423 20.7234C17.5559 20.7234 17.3822 20.5498 17.3822 20.4634V20.117V20.2034V20.2024ZM18.596 22.9764C18.596 23.15 18.596 23.2364 18.4223 23.4101C18.2487 23.6701 18.4223 23.6701 18.076 23.9301C17.7296 24.1901 17.9023 24.1038 17.7296 24.1901C17.5569 24.2765 17.4695 24.1901 17.4695 24.1901C17.4695 24.0165 17.4695 23.7564 17.6432 23.6701C17.7296 23.4101 17.8169 23.2364 17.9896 23.0627C18.1633 22.8891 18.1633 22.8027 18.2496 22.7163C18.336 22.63 18.2496 22.4563 18.4233 22.7163C18.597 22.9764 18.6833 22.9764 18.597 23.2364V22.9764H18.596ZM19.6361 20.1151C19.6361 20.3751 19.5498 20.6352 19.4625 20.8088C19.2888 21.0689 19.4625 21.0689 19.2024 21.2425C19.1161 21.3289 19.0288 21.4162 18.856 21.5026C18.6824 21.5026 18.5097 21.5026 18.5097 21.4162C18.5097 21.1562 18.5097 20.9825 18.596 20.7225C18.6824 20.5488 18.856 20.2888 19.0297 20.1151C19.2034 19.8551 19.1161 19.8551 19.2034 19.7687C19.2907 19.6824 19.377 19.5951 19.4634 19.7687C19.5498 19.9424 19.7234 19.7687 19.6371 20.2024V20.1161L19.6361 20.1151ZM19.8962 10.8376C19.5498 11.0113 19.1161 11.0976 18.6824 11.184C18.4223 11.184 18.1623 11.184 17.9023 11.0103C17.6423 11.0103 17.3822 10.8367 17.1222 10.7503C16.7758 10.4039 16.6022 10.0566 16.5148 9.62289V8.84281C16.8612 7.62903 17.6423 6.67527 18.6824 5.98155C19.2024 5.63516 19.6361 5.46149 19.8962 5.28783C20.4162 5.11416 20.9363 4.94144 21.5436 4.85413H22.5837C22.6701 4.85413 22.7574 4.85413 22.8438 5.0278C22.8438 5.37419 22.9301 5.72152 23.0174 5.98155C23.1038 6.32794 23.1911 6.58891 23.1911 6.9353V7.54267C22.9311 8.75645 22.2374 9.79656 21.1099 10.4039C20.7635 10.5776 20.3299 10.8376 19.9825 10.924L19.8962 10.8376Z" fill="#0A0A0F"/>
</g>
<defs>
<clipPath id="clip0_2_155">
<rect width="28.4389" height="30" fill="white" transform="translate(0.561157)"/>
</clipPath>
</defs>
</svg>
