<svg width="20" height="20" viewBox="0 0 20 20" fill="none" xmlns="http://www.w3.org/2000/svg">
<path d="M10.9208 16.4133L7.02275 16.3405C5.76064 16.3151 4.49539 16.3658 3.25803 16.1027C1.37572 15.7098 1.24238 13.783 1.10284 12.1668C0.910572 9.89464 0.985004 7.58123 1.34784 5.32803C1.55267 4.06374 2.35876 3.30934 3.60535 3.22724C7.81352 2.92931 12.0497 2.96462 16.2485 3.10362C16.692 3.11636 17.1385 3.186 17.5757 3.26527C19.7341 3.65191 19.7868 5.83538 19.9267 7.67344C20.0662 9.53047 20.0073 11.397 19.7406 13.2414C19.5266 14.7685 19.1173 16.0491 17.3896 16.1728C15.225 16.3344 13.1101 16.4646 10.9394 16.4231C10.9395 16.4133 10.927 16.4133 10.9208 16.4133ZM8.62913 12.5471C10.2603 11.59 11.8604 10.6489 13.4823 9.69816C11.8481 8.74105 10.251 7.79989 8.62913 6.84919V12.5471Z" fill="#0A0A0F"/>
</svg>
