<svg width="40" height="40" viewBox="0 0 40 40" fill="none" xmlns="http://www.w3.org/2000/svg">
<path d="M23.75 17.5C23.75 17.8315 23.6183 18.1495 23.3839 18.3839C23.1495 18.6183 22.8315 18.75 22.5 18.75H18.75V22.5C18.75 22.8315 18.6183 23.1495 18.3839 23.3839C18.1495 23.6183 17.8315 23.75 17.5 23.75C17.1685 23.75 16.8505 23.6183 16.6161 23.3839C16.3817 23.1495 16.25 22.8315 16.25 22.5V18.75H12.5C12.1685 18.75 11.8505 18.6183 11.6161 18.3839C11.3817 18.1495 11.25 17.8315 11.25 17.5C11.25 17.1685 11.3817 16.8505 11.6161 16.6161C11.8505 16.3817 12.1685 16.25 12.5 16.25H16.25V12.5C16.25 12.1685 16.3817 11.8505 16.6161 11.6161C16.8505 11.3817 17.1685 11.25 17.5 11.25C17.8315 11.25 18.1495 11.3817 18.3839 11.6161C18.6183 11.8505 18.75 12.1685 18.75 12.5V16.25H22.5C22.8315 16.25 23.1495 16.3817 23.3839 16.6161C23.6183 16.8505 23.75 17.1685 23.75 17.5ZM35.8844 35.8844C35.7683 36.0006 35.6304 36.0928 35.4787 36.1557C35.3269 36.2186 35.1643 36.251 35 36.251C34.8357 36.251 34.6731 36.2186 34.5213 36.1557C34.3696 36.0928 34.2317 36.0006 34.1156 35.8844L26.2937 28.0609C23.5714 30.3285 20.0797 31.4592 16.5449 31.2179C13.0101 30.9765 9.70445 29.3817 7.31557 26.7652C4.92669 24.1487 3.63851 20.7119 3.71901 17.1698C3.79951 13.6278 5.24249 10.2531 7.74777 7.74777C10.2531 5.24249 13.6278 3.79951 17.1698 3.71901C20.7119 3.63851 24.1487 4.92669 26.7652 7.31557C29.3817 9.70445 30.9765 13.0101 31.2179 16.5449C31.4592 20.0797 30.3285 23.5714 28.0609 26.2937L35.8844 34.1156C36.0006 34.2317 36.0928 34.3696 36.1557 34.5213C36.2186 34.6731 36.251 34.8357 36.251 35C36.251 35.1643 36.2186 35.3269 36.1557 35.4787C36.0928 35.6304 36.0006 35.7683 35.8844 35.8844ZM17.5 28.75C19.725 28.75 21.9001 28.0902 23.7502 26.854C25.6002 25.6179 27.0422 23.8608 27.8936 21.8052C28.7451 19.7495 28.9679 17.4875 28.5338 15.3052C28.0997 13.1229 27.0283 11.1184 25.4549 9.54504C23.8816 7.9717 21.877 6.90024 19.6948 6.46616C17.5125 6.03207 15.2505 6.25486 13.1948 7.10635C11.1391 7.95783 9.38212 9.39977 8.14596 11.2498C6.90979 13.0999 6.24999 15.275 6.24999 17.5C6.2533 20.4827 7.43963 23.3422 9.54869 25.4513C11.6578 27.5604 14.5173 28.7467 17.5 28.75Z" fill="white"/>
</svg>
