<svg width="40" height="40" viewBox="0 0 40 40" fill="none" xmlns="http://www.w3.org/2000/svg">
<path d="M23.75 17.5001C23.75 17.8316 23.6183 18.1496 23.3839 18.384C23.1495 18.6184 22.8315 18.7501 22.5 18.7501H18.75V22.5001C18.75 22.8316 18.6183 23.1496 18.3839 23.384C18.1495 23.6184 17.8315 23.7501 17.5 23.7501C17.1685 23.7501 16.8505 23.6184 16.6161 23.384C16.3817 23.1496 16.25 22.8316 16.25 22.5001V18.7501H12.5C12.1685 18.7501 11.8505 18.6184 11.6161 18.384C11.3817 18.1496 11.25 17.8316 11.25 17.5001C11.25 17.1686 11.3817 16.8506 11.6161 16.6162C11.8505 16.3818 12.1685 16.2501 12.5 16.2501H16.25V12.5001C16.25 12.1686 16.3817 11.8506 16.6161 11.6162C16.8505 11.3818 17.1685 11.2501 17.5 11.2501C17.8315 11.2501 18.1495 11.3818 18.3839 11.6162C18.6183 11.8506 18.75 12.1686 18.75 12.5001V16.2501H22.5C22.8315 16.2501 23.1495 16.3818 23.3839 16.6162C23.6183 16.8506 23.75 17.1686 23.75 17.5001ZM35.8844 35.8845C35.7683 36.0007 35.6304 36.0929 35.4787 36.1558C35.3269 36.2187 35.1643 36.2511 35 36.2511C34.8357 36.2511 34.6731 36.2187 34.5213 36.1558C34.3696 36.0929 34.2317 36.0007 34.1156 35.8845L26.2937 28.0611C23.5714 30.3286 20.0797 31.4593 16.5449 31.218C13.0101 30.9766 9.70445 29.3818 7.31557 26.7653C4.92669 24.1488 3.63851 20.7121 3.71901 17.17C3.79951 13.6279 5.24249 10.2532 7.74777 7.7479C10.2531 5.24261 13.6278 3.79963 17.1698 3.71913C20.7119 3.63863 24.1487 4.92681 26.7652 7.31569C29.3817 9.70457 30.9765 13.0102 31.2179 16.545C31.4592 20.0798 30.3285 23.5715 28.0609 26.2939L35.8844 34.1157C36.0006 34.2318 36.0928 34.3697 36.1557 34.5214C36.2186 34.6732 36.251 34.8358 36.251 35.0001C36.251 35.1644 36.2186 35.327 36.1557 35.4788C36.0928 35.6305 36.0006 35.7684 35.8844 35.8845ZM17.5 28.7501C19.725 28.7501 21.9001 28.0903 23.7502 26.8541C25.6002 25.618 27.0422 23.861 27.8936 21.8053C28.7451 19.7496 28.9679 17.4876 28.5338 15.3053C28.0997 13.1231 27.0283 11.1185 25.4549 9.54516C23.8816 7.97182 21.877 6.90036 19.6948 6.46628C17.5125 6.03219 15.2505 6.25498 13.1948 7.10647C11.1391 7.95795 9.38212 9.39989 8.14596 11.2499C6.90979 13.1 6.24999 15.2751 6.24999 17.5001C6.2533 20.4828 7.43963 23.3423 9.54869 25.4514C11.6578 27.5605 14.5173 28.7468 17.5 28.7501Z" fill="black"/>
</svg>
